<svg width="147" height="48" viewBox="0 0 147 48" fill="none" xmlns="http://www.w3.org/2000/svg">
<g clip-path="url(#clip0_104_727)">
<path d="M48 24C48 10.7452 37.2548 0 24 0C10.7452 0 0 10.7452 0 24C0 35.9791 8.77645 45.908 20.25 47.7083V30.9375H14.1562V24H20.25V18.7125C20.25 12.6975 23.8331 9.375 29.3151 9.375C31.941 9.375 34.6875 9.84375 34.6875 9.84375V15.75H31.6611C28.6798 15.75 27.75 17.6 27.75 19.498V24H34.4062L33.3422 30.9375H27.75V47.7083C39.2235 45.908 48 35.9791 48 24Z" fill="#1877F2"/>
<path d="M33.3422 30.9375L34.4062 24H27.75V19.498C27.75 17.6 28.6798 15.75 31.6611 15.75H34.6875V9.84375C34.6875 9.84375 31.941 9.375 29.3151 9.375C23.8331 9.375 20.25 12.6975 20.25 18.7125V24H14.1562V30.9375H20.25V47.7083C22.7349 48.0972 25.2651 48.0972 27.75 47.7083V30.9375H33.3422Z" fill="white"/>
</g>
<path d="M63.348 31H61.584V18.4H70.152V19.93H63.348V24.34H69.252V25.87H63.348V31ZM80.7906 31H79.1526L79.1166 29.641C78.7506 30.121 78.2736 30.505 77.6856 30.793C77.0976 31.075 76.4586 31.216 75.7686 31.216C74.9346 31.216 74.1876 31.012 73.5276 30.604C72.8736 30.196 72.3576 29.638 71.9796 28.93C71.6016 28.216 71.4126 27.406 71.4126 26.5C71.4126 25.594 71.6016 24.787 71.9796 24.079C72.3576 23.365 72.8736 22.804 73.5276 22.396C74.1876 21.988 74.9346 21.784 75.7686 21.784C76.4586 21.784 77.0976 21.928 77.6856 22.216C78.2736 22.498 78.7506 22.879 79.1166 23.359L79.1526 22H80.7906V31ZM76.1286 29.722C76.7106 29.722 77.2266 29.584 77.6766 29.308C78.1266 29.032 78.4776 28.654 78.7296 28.174C78.9876 27.688 79.1166 27.13 79.1166 26.5C79.1166 25.87 78.9876 25.315 78.7296 24.835C78.4776 24.349 78.1266 23.968 77.6766 23.692C77.2266 23.416 76.7106 23.278 76.1286 23.278C75.5466 23.278 75.0306 23.416 74.5806 23.692C74.1306 23.968 73.7766 24.349 73.5186 24.835C73.2666 25.315 73.1406 25.87 73.1406 26.5C73.1406 27.13 73.2666 27.688 73.5186 28.174C73.7766 28.654 74.1306 29.032 74.5806 29.308C75.0306 29.584 75.5466 29.722 76.1286 29.722ZM90.3812 28.714L91.1732 29.992C90.7052 30.376 90.1742 30.676 89.5802 30.892C88.9922 31.108 88.3652 31.216 87.6992 31.216C86.7632 31.216 85.9412 31.015 85.2332 30.613C84.5252 30.211 83.9732 29.656 83.5772 28.948C83.1812 28.24 82.9832 27.424 82.9832 26.5C82.9832 25.576 83.1812 24.76 83.5772 24.052C83.9732 23.344 84.5252 22.789 85.2332 22.387C85.9412 21.985 86.7632 21.784 87.6992 21.784C88.3352 21.784 88.9292 21.88 89.4812 22.072C90.0332 22.264 90.5312 22.522 90.9752 22.846L90.1832 24.124C89.8412 23.872 89.4542 23.674 89.0222 23.53C88.5962 23.386 88.1702 23.314 87.7442 23.314C86.8502 23.314 86.1272 23.608 85.5752 24.196C85.0232 24.784 84.7472 25.552 84.7472 26.5C84.7472 27.448 85.0232 28.216 85.5752 28.804C86.1272 29.392 86.8502 29.686 87.7442 29.686C88.2062 29.686 88.6652 29.602 89.1212 29.434C89.5832 29.26 90.0032 29.02 90.3812 28.714ZM100.39 28.75L101.146 30.028C100.642 30.406 100.054 30.7 99.3818 30.91C98.7158 31.114 98.0258 31.216 97.3118 31.216C96.3518 31.216 95.5118 31.021 94.7918 30.631C94.0718 30.241 93.5108 29.692 93.1088 28.984C92.7128 28.276 92.5148 27.448 92.5148 26.5C92.5148 25.57 92.7068 24.751 93.0908 24.043C93.4748 23.335 94.0058 22.783 94.6838 22.387C95.3678 21.985 96.1538 21.784 97.0418 21.784C98.3438 21.784 99.3698 22.18 100.12 22.972C100.876 23.758 101.254 24.844 101.254 26.23V27.238H94.2878C94.4198 28.012 94.7588 28.621 95.3048 29.065C95.8568 29.503 96.5678 29.722 97.4378 29.722C97.9598 29.722 98.4668 29.638 98.9588 29.47C99.4508 29.302 99.9278 29.062 100.39 28.75ZM97.0418 23.206C96.2558 23.206 95.6198 23.44 95.1338 23.908C94.6538 24.376 94.3628 25.024 94.2608 25.852H99.5438V25.762C99.5438 24.994 99.3158 24.376 98.8598 23.908C98.4098 23.44 97.8038 23.206 97.0418 23.206ZM105.261 31H103.623V17.59L105.315 17.41V23.332C105.687 22.858 106.164 22.483 106.746 22.207C107.328 21.925 107.961 21.784 108.645 21.784C109.479 21.784 110.223 21.988 110.877 22.396C111.537 22.804 112.056 23.365 112.434 24.079C112.812 24.787 113.001 25.594 113.001 26.5C113.001 27.406 112.812 28.216 112.434 28.93C112.056 29.638 111.537 30.196 110.877 30.604C110.223 31.012 109.479 31.216 108.645 31.216C107.955 31.216 107.316 31.075 106.728 30.793C106.14 30.505 105.663 30.121 105.297 29.641L105.261 31ZM108.285 29.722C108.867 29.722 109.383 29.584 109.833 29.308C110.283 29.032 110.634 28.654 110.886 28.174C111.144 27.688 111.273 27.13 111.273 26.5C111.273 25.87 111.144 25.315 110.886 24.835C110.634 24.349 110.283 23.968 109.833 23.692C109.383 23.416 108.867 23.278 108.285 23.278C107.703 23.278 107.187 23.416 106.737 23.692C106.287 23.968 105.933 24.349 105.675 24.835C105.423 25.315 105.297 25.87 105.297 26.5C105.297 27.13 105.423 27.688 105.675 28.174C105.933 28.654 106.287 29.032 106.737 29.308C107.187 29.584 107.703 29.722 108.285 29.722ZM119.405 31.216C118.469 31.216 117.647 31.015 116.939 30.613C116.231 30.211 115.679 29.656 115.283 28.948C114.887 28.24 114.689 27.424 114.689 26.5C114.689 25.576 114.887 24.76 115.283 24.052C115.679 23.344 116.231 22.789 116.939 22.387C117.647 21.985 118.469 21.784 119.405 21.784C120.341 21.784 121.163 21.985 121.871 22.387C122.579 22.789 123.131 23.344 123.527 24.052C123.923 24.76 124.121 25.576 124.121 26.5C124.121 27.424 123.923 28.24 123.527 28.948C123.131 29.656 122.579 30.211 121.871 30.613C121.163 31.015 120.341 31.216 119.405 31.216ZM119.405 29.722C119.987 29.722 120.503 29.584 120.953 29.308C121.403 29.032 121.754 28.654 122.006 28.174C122.264 27.688 122.393 27.13 122.393 26.5C122.393 25.87 122.264 25.315 122.006 24.835C121.754 24.349 121.403 23.968 120.953 23.692C120.503 23.416 119.987 23.278 119.405 23.278C118.823 23.278 118.307 23.416 117.857 23.692C117.407 23.968 117.053 24.349 116.795 24.835C116.543 25.315 116.417 25.87 116.417 26.5C116.417 27.13 116.543 27.688 116.795 28.174C117.053 28.654 117.407 29.032 117.857 29.308C118.307 29.584 118.823 29.722 119.405 29.722ZM130.536 31.216C129.6 31.216 128.778 31.015 128.07 30.613C127.362 30.211 126.81 29.656 126.414 28.948C126.018 28.24 125.82 27.424 125.82 26.5C125.82 25.576 126.018 24.76 126.414 24.052C126.81 23.344 127.362 22.789 128.07 22.387C128.778 21.985 129.6 21.784 130.536 21.784C131.472 21.784 132.294 21.985 133.002 22.387C133.71 22.789 134.262 23.344 134.658 24.052C135.054 24.76 135.252 25.576 135.252 26.5C135.252 27.424 135.054 28.24 134.658 28.948C134.262 29.656 133.71 30.211 133.002 30.613C132.294 31.015 131.472 31.216 130.536 31.216ZM130.536 29.722C131.118 29.722 131.634 29.584 132.084 29.308C132.534 29.032 132.885 28.654 133.137 28.174C133.395 27.688 133.524 27.13 133.524 26.5C133.524 25.87 133.395 25.315 133.137 24.835C132.885 24.349 132.534 23.968 132.084 23.692C131.634 23.416 131.118 23.278 130.536 23.278C129.954 23.278 129.438 23.416 128.988 23.692C128.538 23.968 128.184 24.349 127.926 24.835C127.674 25.315 127.548 25.87 127.548 26.5C127.548 27.13 127.674 27.688 127.926 28.174C128.184 28.654 128.538 29.032 128.988 29.308C129.438 29.584 129.954 29.722 130.536 29.722ZM139.148 31H137.456V17.59L139.148 17.41V25.978L143.171 22H145.25L140.948 26.248L145.88 31H143.567L139.148 26.725V31Z" fill="#232323"/>
<defs>
<clipPath id="clip0_104_727">
<rect width="48" height="48" fill="white"/>
</clipPath>
</defs>
</svg>
