<svg width="46" height="46" viewBox="0 0 46 46" fill="none" xmlns="http://www.w3.org/2000/svg">
<path d="M0 45.7809L3.28468 33.5785C0.635667 28.8251 -0.205949 23.2782 0.914264 17.9558C2.03448 12.6334 5.04138 7.89241 9.3832 4.60285C13.725 1.3133 19.1105 -0.304166 24.5514 0.0472566C29.9924 0.39868 35.1238 2.69542 39.004 6.51603C42.8842 10.3366 45.253 15.4248 45.6757 20.8469C46.0984 26.269 44.5466 31.6613 41.3052 36.0342C38.0637 40.4072 33.3499 43.4676 28.0289 44.6537C22.7078 45.8399 17.1364 45.0722 12.3369 42.4917L0 45.7809ZM12.9318 37.9255L13.6948 38.3769C17.1711 40.4322 21.2314 41.2827 25.2429 40.7959C29.2545 40.3091 32.9919 38.5124 35.8728 35.6857C38.7537 32.8589 40.6162 29.1611 41.1701 25.1683C41.724 21.1755 40.9382 17.1121 38.9351 13.6113C36.932 10.1105 33.8242 7.36893 30.0959 5.81387C26.3676 4.25881 22.2283 3.97759 18.3231 5.01403C14.4179 6.05047 10.966 8.34636 8.50555 11.5439C6.04506 14.7415 4.7141 18.661 4.7201 22.6919C4.71683 26.0341 5.64351 29.3116 7.39698 32.1597L7.87546 32.9465L6.03915 39.7571L12.9318 37.9255Z" fill="#00D95F"/>
<path fill-rule="evenodd" clip-rule="evenodd" d="M31.4498 25.8251C31.0025 25.4653 30.4788 25.212 29.9185 25.0846C29.3583 24.9572 28.7763 24.959 28.2168 25.0899C27.3762 25.4382 26.8331 26.7538 26.29 27.4117C26.1754 27.5694 26.0071 27.68 25.8167 27.7227C25.6262 27.7655 25.4266 27.7374 25.2554 27.6439C22.1781 26.4416 19.5986 24.237 17.936 21.3879C17.7942 21.2101 17.7271 20.9844 17.7488 20.7582C17.7705 20.5321 17.8794 20.3231 18.0524 20.1754C18.6582 19.5772 19.103 18.8364 19.3456 18.0213C19.3995 17.1223 19.193 16.2267 18.7507 15.4415C18.4088 14.3407 17.7582 13.3604 16.8756 12.6167C16.4204 12.4125 15.9157 12.344 15.4224 12.4195C14.929 12.495 14.4681 12.7113 14.0953 13.0423C13.448 13.5994 12.9342 14.2941 12.5918 15.0754C12.2494 15.8568 12.0871 16.7047 12.1167 17.5569C12.1187 18.0355 12.1795 18.512 12.2978 18.9758C12.5981 20.0902 13.0598 21.1548 13.6685 22.136C14.1077 22.8877 14.5869 23.6154 15.104 24.316C16.7845 26.6171 18.897 28.5709 21.3242 30.0689C22.5421 30.8301 23.8439 31.449 25.2037 31.9134C26.6163 32.5521 28.1759 32.7973 29.7169 32.6228C30.5949 32.4903 31.4268 32.1445 32.1394 31.6159C32.852 31.0874 33.4234 30.3922 33.8033 29.5916C34.0266 29.108 34.0943 28.5673 33.9973 28.0437C33.7645 26.9731 32.3291 26.3411 31.4498 25.8251Z" fill="#00D95F"/>
</svg>
