<svg width="12" height="7" viewBox="0 0 12 7" fill="none" xmlns="http://www.w3.org/2000/svg">
<path fill-rule="evenodd" clip-rule="evenodd" d="M11 1.27785C11 1.42007 10.9456 1.5623 10.8372 1.67063L6.39284 6.11501C6.17562 6.33223 5.82452 6.33223 5.6073 6.11501L1.16291 1.67063C0.945695 1.45341 0.945695 1.1023 1.16291 0.885082C1.38013 0.667863 1.73124 0.667863 1.94846 0.885082L6.00007 4.93669L10.0517 0.885082C10.2689 0.667863 10.62 0.667863 10.8372 0.885082C10.9456 0.993414 11 1.13563 11 1.27785Z" fill="#67788A"/>
<path d="M11 1.27785C11 1.42007 10.9456 1.5623 10.8372 1.67063L6.39284 6.11501C6.17562 6.33223 5.82452 6.33223 5.6073 6.11501L1.16291 1.67063C0.945695 1.45341 0.945695 1.1023 1.16291 0.885082C1.38013 0.667863 1.73124 0.667863 1.94846 0.885082L6.00007 4.93669L10.0517 0.885082C10.2689 0.667863 10.62 0.667863 10.8372 0.885082C10.9456 0.993414 11 1.13563 11 1.27785" stroke="#67788A"/>
</svg>
