<svg width="151" height="48" viewBox="0 0 151 48" fill="none" xmlns="http://www.w3.org/2000/svg">
<path d="M16.0019 23.9866C16.0019 19.5709 19.5827 15.9904 24.001 15.9904C28.4192 15.9904 32.0019 19.5709 32.0019 23.9866C32.0019 28.4022 28.4192 31.9827 24.001 31.9827C19.5827 31.9827 16.0019 28.4022 16.0019 23.9866ZM11.6768 23.9866C11.6768 30.7892 17.1943 36.3034 24.001 36.3034C30.8076 36.3034 36.3252 30.7892 36.3252 23.9866C36.3252 17.184 30.8076 11.6698 24.001 11.6698C17.1943 11.6698 11.6768 17.184 11.6768 23.9866ZM33.9329 11.1814C33.9327 11.7507 34.1014 12.3073 34.4177 12.7807C34.734 13.2542 35.1836 13.6233 35.7098 13.8414C36.236 14.0595 36.8151 14.1167 37.3738 14.0058C37.9325 13.895 38.4458 13.6211 38.8488 13.2187C39.2517 12.8163 39.5263 12.3035 39.6376 11.7452C39.749 11.1869 39.6922 10.6081 39.4744 10.0821C39.2566 9.55605 38.8876 9.10636 38.4141 8.78989C37.9406 8.47342 37.3838 8.30438 36.8142 8.30415H36.8131C36.0495 8.30451 35.3173 8.60772 34.7773 9.1472C34.2373 9.68667 33.9336 10.4183 33.9329 11.1814V11.1814ZM14.3046 43.5111C11.9646 43.4046 10.6927 43.015 9.8475 42.6859C8.72694 42.2499 7.92742 41.7307 7.08681 40.8917C6.2462 40.0528 5.72586 39.2545 5.29154 38.1346C4.96205 37.2903 4.57228 36.0188 4.46591 33.6802C4.34955 31.1518 4.32632 30.3923 4.32632 23.9868C4.32632 17.5812 4.35147 16.8238 4.46591 14.2933C4.57247 11.9547 4.96513 10.6857 5.29154 9.83891C5.72778 8.71902 6.24735 7.91998 7.08681 7.07988C7.92627 6.23977 8.72502 5.71974 9.8475 5.28568C10.6923 4.95639 11.9646 4.56685 14.3046 4.46054C16.8345 4.34426 17.5944 4.32104 24.001 4.32104C30.4075 4.32104 31.1682 4.34617 33.7002 4.46054C36.0402 4.56704 37.31 4.95946 38.1573 5.28568C39.2779 5.71974 40.0774 6.24092 40.918 7.07988C41.7586 7.91883 42.277 8.71902 42.7133 9.83891C43.0427 10.6832 43.4325 11.9547 43.5389 14.2933C43.6553 16.8238 43.6785 17.5812 43.6785 23.9868C43.6785 30.3923 43.6553 31.1497 43.5389 33.6802C43.4323 36.0188 43.0406 37.2899 42.7133 38.1346C42.277 39.2545 41.7574 40.0535 40.918 40.8917C40.0785 41.7299 39.2779 42.2499 38.1573 42.6859C37.3125 43.0152 36.0402 43.4048 33.7002 43.5111C31.1703 43.6274 30.4104 43.6506 24.001 43.6506C17.5916 43.6506 16.8337 43.6274 14.3046 43.5111V43.5111ZM14.1058 0.145263C11.5508 0.26155 9.80487 0.666443 8.28014 1.25939C6.70107 1.87172 5.36431 2.69321 4.02851 4.0261C2.69272 5.35898 1.87284 6.69705 1.26015 8.27518C0.666843 9.79995 0.261706 11.5439 0.14535 14.0974C0.0270731 16.6549 0 17.4726 0 23.9866C0 30.5006 0.0270731 31.3182 0.14535 33.8758C0.261706 36.4295 0.666843 38.1732 1.26015 39.698C1.87284 41.2751 2.69291 42.6147 4.02851 43.947C5.36412 45.2794 6.70107 46.0997 8.28014 46.7138C9.80775 47.3067 11.5508 47.7116 14.1058 47.8279C16.6663 47.9442 17.4831 47.9731 24.001 47.9731C30.5189 47.9731 31.337 47.9461 33.8961 47.8279C36.4513 47.7116 38.1961 47.3067 39.7218 46.7138C41.2999 46.0997 42.6376 45.2799 43.9734 43.947C45.3092 42.6142 46.1274 41.2751 46.7418 39.698C47.3351 38.1732 47.7421 36.4293 47.8566 33.8758C47.9729 31.3163 48 30.5006 48 23.9866C48 17.4726 47.9729 16.6549 47.8566 14.0974C47.7402 11.5437 47.3351 9.79899 46.7418 8.27518C46.1274 6.69801 45.3071 5.36109 43.9734 4.0261C42.6397 2.6911 41.2999 1.87172 39.7237 1.25939C38.1961 0.666443 36.4511 0.259631 33.898 0.145263C31.3389 0.0289758 30.5208 0 24.0029 0C17.485 0 16.6663 0.0270569 14.1058 0.145263Z" fill="url(#paint0_radial_104_751)"/>
<path d="M16.0019 23.9866C16.0019 19.5709 19.5827 15.9904 24.001 15.9904C28.4192 15.9904 32.0019 19.5709 32.0019 23.9866C32.0019 28.4022 28.4192 31.9827 24.001 31.9827C19.5827 31.9827 16.0019 28.4022 16.0019 23.9866ZM11.6768 23.9866C11.6768 30.7892 17.1943 36.3034 24.001 36.3034C30.8076 36.3034 36.3252 30.7892 36.3252 23.9866C36.3252 17.184 30.8076 11.6698 24.001 11.6698C17.1943 11.6698 11.6768 17.184 11.6768 23.9866ZM33.9329 11.1814C33.9327 11.7507 34.1014 12.3073 34.4177 12.7807C34.734 13.2542 35.1836 13.6233 35.7098 13.8414C36.236 14.0595 36.8151 14.1167 37.3738 14.0058C37.9325 13.895 38.4458 13.6211 38.8488 13.2187C39.2517 12.8163 39.5263 12.3035 39.6376 11.7452C39.749 11.1869 39.6922 10.6081 39.4744 10.0821C39.2566 9.55605 38.8876 9.10636 38.4141 8.78989C37.9406 8.47342 37.3838 8.30438 36.8142 8.30415H36.8131C36.0495 8.30451 35.3173 8.60772 34.7773 9.1472C34.2373 9.68667 33.9336 10.4183 33.9329 11.1814V11.1814ZM14.3046 43.5111C11.9646 43.4046 10.6927 43.015 9.8475 42.6859C8.72694 42.2499 7.92742 41.7307 7.08681 40.8917C6.2462 40.0528 5.72586 39.2545 5.29154 38.1346C4.96205 37.2903 4.57228 36.0188 4.46591 33.6802C4.34955 31.1518 4.32632 30.3923 4.32632 23.9868C4.32632 17.5812 4.35147 16.8238 4.46591 14.2933C4.57247 11.9547 4.96513 10.6857 5.29154 9.83891C5.72778 8.71902 6.24735 7.91998 7.08681 7.07988C7.92627 6.23977 8.72502 5.71974 9.8475 5.28568C10.6923 4.95639 11.9646 4.56685 14.3046 4.46054C16.8345 4.34426 17.5944 4.32104 24.001 4.32104C30.4075 4.32104 31.1682 4.34617 33.7002 4.46054C36.0402 4.56704 37.31 4.95946 38.1573 5.28568C39.2779 5.71974 40.0774 6.24092 40.918 7.07988C41.7586 7.91883 42.277 8.71902 42.7133 9.83891C43.0427 10.6832 43.4325 11.9547 43.5389 14.2933C43.6553 16.8238 43.6785 17.5812 43.6785 23.9868C43.6785 30.3923 43.6553 31.1497 43.5389 33.6802C43.4323 36.0188 43.0406 37.2899 42.7133 38.1346C42.277 39.2545 41.7574 40.0535 40.918 40.8917C40.0785 41.7299 39.2779 42.2499 38.1573 42.6859C37.3125 43.0152 36.0402 43.4048 33.7002 43.5111C31.1703 43.6274 30.4104 43.6506 24.001 43.6506C17.5916 43.6506 16.8337 43.6274 14.3046 43.5111V43.5111ZM14.1058 0.145263C11.5508 0.26155 9.80487 0.666443 8.28014 1.25939C6.70107 1.87172 5.36431 2.69321 4.02851 4.0261C2.69272 5.35898 1.87284 6.69705 1.26015 8.27518C0.666843 9.79995 0.261706 11.5439 0.14535 14.0974C0.0270731 16.6549 0 17.4726 0 23.9866C0 30.5006 0.0270731 31.3182 0.14535 33.8758C0.261706 36.4295 0.666843 38.1732 1.26015 39.698C1.87284 41.2751 2.69291 42.6147 4.02851 43.947C5.36412 45.2794 6.70107 46.0997 8.28014 46.7138C9.80775 47.3067 11.5508 47.7116 14.1058 47.8279C16.6663 47.9442 17.4831 47.9731 24.001 47.9731C30.5189 47.9731 31.337 47.9461 33.8961 47.8279C36.4513 47.7116 38.1961 47.3067 39.7218 46.7138C41.2999 46.0997 42.6376 45.2799 43.9734 43.947C45.3092 42.6142 46.1274 41.2751 46.7418 39.698C47.3351 38.1732 47.7421 36.4293 47.8566 33.8758C47.9729 31.3163 48 30.5006 48 23.9866C48 17.4726 47.9729 16.6549 47.8566 14.0974C47.7402 11.5437 47.3351 9.79899 46.7418 8.27518C46.1274 6.69801 45.3071 5.36109 43.9734 4.0261C42.6397 2.6911 41.2999 1.87172 39.7237 1.25939C38.1961 0.666443 36.4511 0.259631 33.898 0.145263C31.3389 0.0289758 30.5208 0 24.0029 0C17.485 0 16.6663 0.0270569 14.1058 0.145263Z" fill="url(#paint1_radial_104_751)"/>
<path d="M63.348 30.9866H61.584V18.3866H63.348V30.9866ZM74.8395 30.9866H73.1475V25.7486C73.1475 24.9746 72.9495 24.3686 72.5535 23.9306C72.1575 23.4866 71.6115 23.2646 70.9155 23.2646C70.0515 23.2646 69.3615 23.5406 68.8455 24.0926C68.3295 24.6446 68.0715 25.3586 68.0715 26.2346V30.9866H66.3795V21.9866H68.0175L68.0535 23.3456C68.4015 22.8716 68.8635 22.4906 69.4395 22.2026C70.0155 21.9146 70.6455 21.7706 71.3295 21.7706C72.4215 21.7706 73.2795 22.1066 73.9035 22.7786C74.5275 23.4446 74.8395 24.3626 74.8395 25.5326V30.9866ZM76.8639 30.0866L77.5749 28.8086C78.0789 29.1086 78.6039 29.3336 79.1499 29.4836C79.7019 29.6336 80.2569 29.7086 80.8149 29.7086C81.4689 29.7086 81.9459 29.6096 82.2459 29.4116C82.5519 29.2136 82.7049 28.9346 82.7049 28.5746C82.7049 28.1846 82.5219 27.9086 82.1559 27.7466C81.7899 27.5846 81.1899 27.4016 80.3559 27.1976C79.7799 27.0596 79.2399 26.8916 78.7359 26.6936C78.2319 26.4956 77.8239 26.2226 77.5119 25.8746C77.1999 25.5266 77.0439 25.0556 77.0439 24.4616C77.0439 23.8916 77.1939 23.4056 77.4939 23.0036C77.7999 22.6016 78.2109 22.2956 78.7269 22.0856C79.2429 21.8756 79.8189 21.7706 80.4549 21.7706C81.1209 21.7706 81.7869 21.8756 82.4529 22.0856C83.1189 22.2956 83.6799 22.5536 84.1359 22.8596L83.4249 24.1286C82.9869 23.8646 82.5159 23.6546 82.0119 23.4986C81.5079 23.3366 81.0039 23.2556 80.4999 23.2556C79.9899 23.2556 79.5729 23.3456 79.2489 23.5256C78.9249 23.7056 78.7629 23.9876 78.7629 24.3716C78.7629 24.7676 78.9549 25.0496 79.3389 25.2176C79.7289 25.3796 80.3229 25.5566 81.1209 25.7486C81.7269 25.8926 82.2789 26.0666 82.7769 26.2706C83.2809 26.4746 83.6829 26.7506 83.9829 27.0986C84.2829 27.4466 84.4329 27.9206 84.4329 28.5206C84.4329 29.3726 84.1119 30.0326 83.4699 30.5006C82.8339 30.9686 81.9579 31.2026 80.8419 31.2026C80.0319 31.2026 79.2789 31.0916 78.5829 30.8696C77.8929 30.6476 77.3199 30.3866 76.8639 30.0866ZM91.7344 29.4746V30.9146C91.5064 30.9506 91.2694 30.9806 91.0234 31.0046C90.7774 31.0286 90.5344 31.0406 90.2944 31.0406C89.1904 31.0406 88.3894 30.7616 87.8914 30.2036C87.3934 29.6456 87.1444 28.7936 87.1444 27.6476V23.4446H85.4704V21.9866H87.1444V19.2686H88.8364V21.9866H91.7704L91.5544 23.4446H88.8364V27.5486C88.8364 28.3046 88.9894 28.8266 89.2954 29.1146C89.6074 29.4026 90.0964 29.5466 90.7624 29.5466C91.1044 29.5466 91.4284 29.5226 91.7344 29.4746ZM102.319 30.9866H100.681L100.645 29.6276C100.279 30.1076 99.8018 30.4916 99.2138 30.7796C98.6258 31.0616 97.9868 31.2026 97.2968 31.2026C96.4628 31.2026 95.7158 30.9986 95.0558 30.5906C94.4018 30.1826 93.8858 29.6246 93.5078 28.9166C93.1298 28.2026 92.9408 27.3926 92.9408 26.4866C92.9408 25.5806 93.1298 24.7736 93.5078 24.0656C93.8858 23.3516 94.4018 22.7906 95.0558 22.3826C95.7158 21.9746 96.4628 21.7706 97.2968 21.7706C97.9868 21.7706 98.6258 21.9146 99.2138 22.2026C99.8018 22.4846 100.279 22.8656 100.645 23.3456L100.681 21.9866H102.319V30.9866ZM97.6568 29.7086C98.2388 29.7086 98.7548 29.5706 99.2048 29.2946C99.6548 29.0186 100.006 28.6406 100.258 28.1606C100.516 27.6746 100.645 27.1166 100.645 26.4866C100.645 25.8566 100.516 25.3016 100.258 24.8216C100.006 24.3356 99.6548 23.9546 99.2048 23.6786C98.7548 23.4026 98.2388 23.2646 97.6568 23.2646C97.0748 23.2646 96.5588 23.4026 96.1088 23.6786C95.6588 23.9546 95.3048 24.3356 95.0468 24.8216C94.7948 25.3016 94.6688 25.8566 94.6688 26.4866C94.6688 27.1166 94.7948 27.6746 95.0468 28.1606C95.3048 28.6406 95.6588 29.0186 96.1088 29.2946C96.5588 29.5706 97.0748 29.7086 97.6568 29.7086ZM112.233 30.8426V29.4296C111.867 29.9156 111.39 30.3026 110.802 30.5906C110.22 30.8786 109.59 31.0226 108.912 31.0226C108.078 31.0226 107.328 30.8216 106.662 30.4196C106.002 30.0116 105.477 29.4596 105.087 28.7636C104.703 28.0616 104.511 27.2726 104.511 26.3966C104.511 25.5206 104.703 24.7346 105.087 24.0386C105.477 23.3366 106.002 22.7846 106.662 22.3826C107.328 21.9746 108.078 21.7706 108.912 21.7706C109.584 21.7706 110.211 21.9146 110.793 22.2026C111.375 22.4846 111.849 22.8656 112.215 23.3456L112.251 21.9866H113.889V30.8426C113.889 32.2106 113.472 33.2726 112.638 34.0286C111.804 34.7846 110.625 35.1626 109.101 35.1626C108.357 35.1626 107.652 35.0666 106.986 34.8746C106.32 34.6826 105.717 34.4066 105.177 34.0466L105.861 32.7056C106.875 33.3476 107.955 33.6686 109.101 33.6686C110.097 33.6686 110.868 33.4256 111.414 32.9396C111.96 32.4536 112.233 31.7546 112.233 30.8426ZM109.227 29.5286C109.779 29.5286 110.28 29.3996 110.73 29.1416C111.186 28.8776 111.546 28.5116 111.81 28.0436C112.08 27.5696 112.215 27.0206 112.215 26.3966C112.215 25.7726 112.08 25.2266 111.81 24.7586C111.546 24.2846 111.186 23.9186 110.73 23.6606C110.28 23.3966 109.779 23.2646 109.227 23.2646C108.675 23.2646 108.171 23.3966 107.715 23.6606C107.265 23.9186 106.905 24.2846 106.635 24.7586C106.371 25.2266 106.239 25.7726 106.239 26.3966C106.239 27.0206 106.371 27.5696 106.635 28.0436C106.905 28.5116 107.265 28.8776 107.715 29.1416C108.171 29.3996 108.675 29.5286 109.227 29.5286ZM118.278 30.9866H116.586V21.9866H118.224L118.26 23.5796C118.596 23.0576 119.049 22.6406 119.619 22.3286C120.189 22.0166 120.81 21.8606 121.482 21.8606C121.608 21.8606 121.749 21.8696 121.905 21.8876C122.067 21.8996 122.196 21.9146 122.292 21.9326V23.4626C122.094 23.4266 121.842 23.4086 121.536 23.4086C120.546 23.4086 119.754 23.7356 119.16 24.3896C118.572 25.0436 118.278 25.9166 118.278 27.0086V30.9866ZM132.706 30.9866H131.068L131.032 29.6276C130.666 30.1076 130.189 30.4916 129.601 30.7796C129.013 31.0616 128.374 31.2026 127.684 31.2026C126.85 31.2026 126.103 30.9986 125.443 30.5906C124.789 30.1826 124.273 29.6246 123.895 28.9166C123.517 28.2026 123.328 27.3926 123.328 26.4866C123.328 25.5806 123.517 24.7736 123.895 24.0656C124.273 23.3516 124.789 22.7906 125.443 22.3826C126.103 21.9746 126.85 21.7706 127.684 21.7706C128.374 21.7706 129.013 21.9146 129.601 22.2026C130.189 22.4846 130.666 22.8656 131.032 23.3456L131.068 21.9866H132.706V30.9866ZM128.044 29.7086C128.626 29.7086 129.142 29.5706 129.592 29.2946C130.042 29.0186 130.393 28.6406 130.645 28.1606C130.903 27.6746 131.032 27.1166 131.032 26.4866C131.032 25.8566 130.903 25.3016 130.645 24.8216C130.393 24.3356 130.042 23.9546 129.592 23.6786C129.142 23.4026 128.626 23.2646 128.044 23.2646C127.462 23.2646 126.946 23.4026 126.496 23.6786C126.046 23.9546 125.692 24.3356 125.434 24.8216C125.182 25.3016 125.056 25.8566 125.056 26.4866C125.056 27.1166 125.182 27.6746 125.434 28.1606C125.692 28.6406 126.046 29.0186 126.496 29.2946C126.946 29.5706 127.462 29.7086 128.044 29.7086ZM149.479 30.9866H147.787V25.7486C147.787 24.9686 147.607 24.3596 147.247 23.9216C146.887 23.4836 146.377 23.2646 145.717 23.2646C144.997 23.2646 144.412 23.5106 143.962 24.0026C143.512 24.4946 143.287 25.2386 143.287 26.2346V30.9866H141.595V25.7486C141.595 24.9686 141.415 24.3596 141.055 23.9216C140.695 23.4836 140.185 23.2646 139.525 23.2646C138.805 23.2646 138.22 23.5106 137.77 24.0026C137.32 24.4946 137.095 25.2386 137.095 26.2346V30.9866H135.403V21.9866H137.041L137.068 23.1746C137.386 22.7426 137.791 22.4006 138.283 22.1486C138.775 21.8966 139.327 21.7706 139.939 21.7706C140.599 21.7706 141.175 21.9296 141.667 22.2476C142.159 22.5656 142.528 23.0126 142.774 23.5886C143.11 23.0066 143.578 22.5596 144.178 22.2476C144.778 21.9296 145.429 21.7706 146.131 21.7706C147.151 21.7706 147.964 22.1066 148.57 22.7786C149.176 23.4446 149.479 24.3626 149.479 25.5326V30.9866Z" fill="#232323"/>
<defs>
<radialGradient id="paint0_radial_104_751" cx="0" cy="0" r="1" gradientUnits="userSpaceOnUse" gradientTransform="translate(6.37734 48.1998) scale(62.6625 62.6249)">
<stop offset="0.09" stop-color="#FA8F21"/>
<stop offset="0.78" stop-color="#D82D7E"/>
</radialGradient>
<radialGradient id="paint1_radial_104_751" cx="0" cy="0" r="1" gradientUnits="userSpaceOnUse" gradientTransform="translate(29.1111 50.349) scale(49.3867 49.3571)">
<stop offset="0.64" stop-color="#8C3AAA" stop-opacity="0"/>
<stop offset="1" stop-color="#8C3AAA"/>
</radialGradient>
</defs>
</svg>
