<svg width="48" height="48" viewBox="0 0 48 48" fill="none" xmlns="http://www.w3.org/2000/svg">
<path d="M16.0019 23.9866C16.0019 19.5709 19.5827 15.9904 24.001 15.9904C28.4192 15.9904 32.0019 19.5709 32.0019 23.9866C32.0019 28.4022 28.4192 31.9827 24.001 31.9827C19.5827 31.9827 16.0019 28.4022 16.0019 23.9866ZM11.6768 23.9866C11.6768 30.7892 17.1943 36.3034 24.001 36.3034C30.8076 36.3034 36.3252 30.7892 36.3252 23.9866C36.3252 17.184 30.8076 11.6698 24.001 11.6698C17.1943 11.6698 11.6768 17.184 11.6768 23.9866ZM33.9329 11.1814C33.9327 11.7507 34.1014 12.3073 34.4177 12.7807C34.734 13.2542 35.1836 13.6233 35.7098 13.8414C36.236 14.0595 36.8151 14.1167 37.3738 14.0058C37.9325 13.895 38.4458 13.6211 38.8488 13.2187C39.2517 12.8163 39.5263 12.3035 39.6376 11.7452C39.749 11.1869 39.6922 10.6081 39.4744 10.0821C39.2566 9.55605 38.8876 9.10636 38.4141 8.78989C37.9406 8.47342 37.3838 8.30438 36.8142 8.30415H36.8131C36.0495 8.30451 35.3173 8.60772 34.7773 9.1472C34.2373 9.68667 33.9336 10.4183 33.9329 11.1814ZM14.3046 43.5111C11.9646 43.4046 10.6927 43.015 9.8475 42.6859C8.72694 42.2499 7.92742 41.7307 7.08681 40.8917C6.2462 40.0528 5.72586 39.2545 5.29154 38.1346C4.96205 37.2903 4.57228 36.0188 4.46591 33.6802C4.34955 31.1518 4.32632 30.3923 4.32632 23.9868C4.32632 17.5812 4.35147 16.8238 4.46591 14.2933C4.57247 11.9547 4.96513 10.6857 5.29154 9.83891C5.72778 8.71902 6.24735 7.91998 7.08681 7.07988C7.92627 6.23977 8.72502 5.71974 9.8475 5.28568C10.6923 4.95639 11.9646 4.56685 14.3046 4.46054C16.8345 4.34426 17.5944 4.32104 24.001 4.32104C30.4075 4.32104 31.1682 4.34617 33.7002 4.46054C36.0402 4.56704 37.31 4.95946 38.1573 5.28568C39.2779 5.71974 40.0774 6.24092 40.918 7.07988C41.7586 7.91883 42.277 8.71902 42.7133 9.83891C43.0427 10.6832 43.4325 11.9547 43.5389 14.2933C43.6553 16.8238 43.6785 17.5812 43.6785 23.9868C43.6785 30.3923 43.6553 31.1497 43.5389 33.6802C43.4323 36.0188 43.0406 37.2899 42.7133 38.1346C42.277 39.2545 41.7574 40.0535 40.918 40.8917C40.0785 41.7299 39.2779 42.2499 38.1573 42.6859C37.3125 43.0152 36.0402 43.4048 33.7002 43.5111C31.1703 43.6273 30.4104 43.6506 24.001 43.6506C17.5916 43.6506 16.8337 43.6273 14.3046 43.5111ZM14.1058 0.145263C11.5508 0.26155 9.80487 0.666443 8.28014 1.25939C6.70107 1.87172 5.36431 2.69321 4.02851 4.0261C2.69272 5.35898 1.87284 6.69705 1.26015 8.27518C0.666843 9.79995 0.261706 11.5439 0.14535 14.0974C0.0270731 16.6549 0 17.4726 0 23.9866C0 30.5006 0.0270731 31.3182 0.14535 33.8758C0.261706 36.4295 0.666843 38.1732 1.26015 39.698C1.87284 41.2751 2.69291 42.6147 4.02851 43.947C5.36412 45.2794 6.70107 46.0997 8.28014 46.7138C9.80775 47.3067 11.5508 47.7116 14.1058 47.8279C16.6663 47.9442 17.4831 47.9731 24.001 47.9731C30.5189 47.9731 31.337 47.9461 33.8961 47.8279C36.4513 47.7116 38.1961 47.3067 39.7218 46.7138C41.2999 46.0997 42.6376 45.2799 43.9734 43.947C45.3092 42.6142 46.1274 41.2751 46.7418 39.698C47.3351 38.1732 47.7421 36.4293 47.8566 33.8758C47.9729 31.3163 48 30.5006 48 23.9866C48 17.4726 47.9729 16.6549 47.8566 14.0974C47.7402 11.5437 47.3351 9.79899 46.7418 8.27518C46.1274 6.69801 45.3071 5.36109 43.9734 4.0261C42.6397 2.6911 41.2999 1.87172 39.7237 1.25939C38.1961 0.666443 36.4511 0.259631 33.898 0.145263C31.3389 0.0289758 30.5208 0 24.0029 0C17.485 0 16.6663 0.0270569 14.1058 0.145263Z" fill="url(#paint0_radial_104_754)"/>
<defs>
<radialGradient id="paint0_radial_104_754" cx="0" cy="0" r="1" gradientUnits="userSpaceOnUse" gradientTransform="translate(29.1111 50.349) scale(49.3867 49.3571)">
<stop offset="0.64" stop-color="#8C3AAA" stop-opacity="0"/>
<stop offset="1" stop-color="#8C3AAA"/>
</radialGradient>
</defs>
</svg>
