<svg width="155" height="46" viewBox="0 0 155 46" fill="none" xmlns="http://www.w3.org/2000/svg">
<path d="M22.9042 0C10.0034 0 0 9.4537 0 22.2171C0 28.8936 2.73705 34.6655 7.19191 38.6508C7.56411 38.9829 7.79315 39.4525 7.8046 39.9563L7.93057 44.0333C7.93975 44.3333 8.02246 44.6264 8.17145 44.8869C8.32044 45.1474 8.53114 45.3674 8.78503 45.5274C9.03892 45.6874 9.32823 45.7826 9.62754 45.8047C9.92684 45.8267 10.227 45.7749 10.5016 45.6538L15.048 43.6496C15.4317 43.4779 15.8669 43.4492 16.2734 43.558C18.3634 44.1306 20.5851 44.4398 22.9042 44.4398C35.805 44.4398 45.8084 34.9861 45.8084 22.2228C45.8084 9.45943 35.805 0 22.9042 0Z" fill="url(#paint0_radial_104_740)"/>
<path d="M9.15022 28.7161L15.8783 18.0428C16.1314 17.6409 16.4651 17.2959 16.8583 17.0295C17.2514 16.7631 17.6955 16.5812 18.1626 16.4951C18.6296 16.409 19.1094 16.4206 19.5717 16.5293C20.034 16.638 20.4688 16.8414 20.8485 17.1266L26.2024 21.1406C26.4414 21.3195 26.7322 21.4157 27.0308 21.4147C27.3293 21.4137 27.6194 21.3154 27.8572 21.1348L35.0835 15.6493C36.0455 14.9163 37.3052 16.073 36.6639 17.098L29.93 27.7656C29.6769 28.1674 29.3433 28.5124 28.9501 28.7788C28.5569 29.0452 28.1128 29.2272 27.6458 29.3133C27.1787 29.3994 26.6989 29.3877 26.2366 29.279C25.7743 29.1703 25.3396 28.967 24.9598 28.6818L19.606 24.6678C19.367 24.4889 19.0762 24.3926 18.7776 24.3937C18.479 24.3947 18.1889 24.4929 17.9512 24.6735L10.7249 30.1591C9.76291 30.892 8.50318 29.7411 9.15022 28.7161Z" fill="white"/>
<path d="M73.0364 29.9048H71.3084V20.2118L66.9794 28.0148H65.4494L61.1204 20.2118V29.9048H59.3924V17.3048H61.4084L66.2504 26.1878L71.0924 17.3048H73.0364V29.9048ZM83.4241 27.6548L84.1801 28.9328C83.6761 29.3108 83.0881 29.6048 82.4161 29.8148C81.7501 30.0188 81.0601 30.1208 80.3461 30.1208C79.3861 30.1208 78.5461 29.9258 77.8261 29.5358C77.1061 29.1458 76.5451 28.5968 76.1431 27.8888C75.7471 27.1808 75.5491 26.3528 75.5491 25.4048C75.5491 24.4748 75.7411 23.6558 76.1251 22.9478C76.5091 22.2398 77.0401 21.6878 77.7181 21.2918C78.4021 20.8898 79.1881 20.6888 80.0761 20.6888C81.3781 20.6888 82.4041 21.0848 83.1541 21.8768C83.9101 22.6628 84.2881 23.7488 84.2881 25.1348V26.1428H77.3221C77.4541 26.9168 77.7931 27.5258 78.3391 27.9698C78.8911 28.4078 79.6021 28.6268 80.4721 28.6268C80.9941 28.6268 81.5011 28.5428 81.9931 28.3748C82.4851 28.2068 82.9621 27.9668 83.4241 27.6548ZM80.0761 22.1108C79.2901 22.1108 78.6541 22.3448 78.1681 22.8128C77.6881 23.2808 77.3971 23.9288 77.2951 24.7568H82.5781V24.6668C82.5781 23.8988 82.3501 23.2808 81.8941 22.8128C81.4441 22.3448 80.8381 22.1108 80.0761 22.1108ZM85.7641 29.0048L86.4751 27.7268C86.9791 28.0268 87.5041 28.2518 88.0501 28.4018C88.6021 28.5518 89.1571 28.6268 89.7151 28.6268C90.3691 28.6268 90.8461 28.5278 91.1461 28.3298C91.4521 28.1318 91.6051 27.8528 91.6051 27.4928C91.6051 27.1028 91.4221 26.8268 91.0561 26.6648C90.6901 26.5028 90.0901 26.3198 89.2561 26.1158C88.6801 25.9778 88.1401 25.8098 87.6361 25.6118C87.1321 25.4138 86.7241 25.1408 86.4121 24.7928C86.1001 24.4448 85.9441 23.9738 85.9441 23.3798C85.9441 22.8098 86.0941 22.3238 86.3941 21.9218C86.7001 21.5198 87.1111 21.2138 87.6271 21.0038C88.1431 20.7938 88.7191 20.6888 89.3551 20.6888C90.0211 20.6888 90.6871 20.7938 91.3531 21.0038C92.0191 21.2138 92.5801 21.4718 93.0361 21.7778L92.3251 23.0468C91.8871 22.7828 91.4161 22.5728 90.9121 22.4168C90.4081 22.2548 89.9041 22.1738 89.4001 22.1738C88.8901 22.1738 88.4731 22.2638 88.1491 22.4438C87.8251 22.6238 87.6631 22.9058 87.6631 23.2898C87.6631 23.6858 87.8551 23.9678 88.2391 24.1358C88.6291 24.2978 89.2231 24.4748 90.0211 24.6668C90.6271 24.8108 91.1791 24.9848 91.6771 25.1888C92.1811 25.3928 92.5831 25.6688 92.8831 26.0168C93.1831 26.3648 93.3331 26.8388 93.3331 27.4388C93.3331 28.2908 93.0121 28.9508 92.3701 29.4188C91.7341 29.8868 90.8581 30.1208 89.7421 30.1208C88.9321 30.1208 88.1791 30.0098 87.4831 29.7878C86.7931 29.5658 86.2201 29.3048 85.7641 29.0048ZM94.6628 29.0048L95.3738 27.7268C95.8778 28.0268 96.4028 28.2518 96.9488 28.4018C97.5008 28.5518 98.0558 28.6268 98.6138 28.6268C99.2678 28.6268 99.7448 28.5278 100.045 28.3298C100.351 28.1318 100.504 27.8528 100.504 27.4928C100.504 27.1028 100.321 26.8268 99.9548 26.6648C99.5888 26.5028 98.9888 26.3198 98.1548 26.1158C97.5788 25.9778 97.0388 25.8098 96.5348 25.6118C96.0308 25.4138 95.6228 25.1408 95.3108 24.7928C94.9988 24.4448 94.8428 23.9738 94.8428 23.3798C94.8428 22.8098 94.9928 22.3238 95.2928 21.9218C95.5988 21.5198 96.0098 21.2138 96.5258 21.0038C97.0418 20.7938 97.6178 20.6888 98.2538 20.6888C98.9198 20.6888 99.5858 20.7938 100.252 21.0038C100.918 21.2138 101.479 21.4718 101.935 21.7778L101.224 23.0468C100.786 22.7828 100.315 22.5728 99.8108 22.4168C99.3068 22.2548 98.8028 22.1738 98.2988 22.1738C97.7888 22.1738 97.3718 22.2638 97.0478 22.4438C96.7238 22.6238 96.5618 22.9058 96.5618 23.2898C96.5618 23.6858 96.7538 23.9678 97.1378 24.1358C97.5278 24.2978 98.1218 24.4748 98.9198 24.6668C99.5258 24.8108 100.078 24.9848 100.576 25.1888C101.08 25.3928 101.482 25.6688 101.782 26.0168C102.082 26.3648 102.232 26.8388 102.232 27.4388C102.232 28.2908 101.911 28.9508 101.269 29.4188C100.633 29.8868 99.7568 30.1208 98.6408 30.1208C97.8308 30.1208 97.0778 30.0098 96.3818 29.7878C95.6918 29.5658 95.1188 29.3048 94.6628 29.0048ZM111.527 27.6548L112.283 28.9328C111.779 29.3108 111.191 29.6048 110.519 29.8148C109.853 30.0188 109.163 30.1208 108.449 30.1208C107.489 30.1208 106.649 29.9258 105.929 29.5358C105.209 29.1458 104.648 28.5968 104.246 27.8888C103.85 27.1808 103.652 26.3528 103.652 25.4048C103.652 24.4748 103.844 23.6558 104.228 22.9478C104.612 22.2398 105.143 21.6878 105.821 21.2918C106.505 20.8898 107.291 20.6888 108.179 20.6888C109.481 20.6888 110.507 21.0848 111.257 21.8768C112.013 22.6628 112.391 23.7488 112.391 25.1348V26.1428H105.425C105.557 26.9168 105.896 27.5258 106.442 27.9698C106.994 28.4078 107.705 28.6268 108.575 28.6268C109.097 28.6268 109.604 28.5428 110.096 28.3748C110.588 28.2068 111.065 27.9668 111.527 27.6548ZM108.179 22.1108C107.393 22.1108 106.757 22.3448 106.271 22.8128C105.791 23.2808 105.5 23.9288 105.398 24.7568H110.681V24.6668C110.681 23.8988 110.453 23.2808 109.997 22.8128C109.547 22.3448 108.941 22.1108 108.179 22.1108ZM123.219 29.9048H121.527V24.6668C121.527 23.8928 121.329 23.2868 120.933 22.8488C120.537 22.4048 119.991 22.1828 119.295 22.1828C118.431 22.1828 117.741 22.4588 117.225 23.0108C116.709 23.5628 116.451 24.2768 116.451 25.1528V29.9048H114.759V20.9048H116.397L116.433 22.2638C116.781 21.7898 117.243 21.4088 117.819 21.1208C118.395 20.8328 119.025 20.6888 119.709 20.6888C120.801 20.6888 121.659 21.0248 122.283 21.6968C122.907 22.3628 123.219 23.2808 123.219 24.4508V29.9048ZM133.056 29.7608V28.3478C132.69 28.8338 132.213 29.2208 131.625 29.5088C131.043 29.7968 130.413 29.9408 129.735 29.9408C128.901 29.9408 128.151 29.7398 127.485 29.3378C126.825 28.9298 126.3 28.3778 125.91 27.6818C125.526 26.9798 125.334 26.1908 125.334 25.3148C125.334 24.4388 125.526 23.6528 125.91 22.9568C126.3 22.2548 126.825 21.7028 127.485 21.3008C128.151 20.8928 128.901 20.6888 129.735 20.6888C130.407 20.6888 131.034 20.8328 131.616 21.1208C132.198 21.4028 132.672 21.7838 133.038 22.2638L133.074 20.9048H134.712V29.7608C134.712 31.1288 134.295 32.1908 133.461 32.9468C132.627 33.7028 131.448 34.0808 129.924 34.0808C129.18 34.0808 128.475 33.9848 127.809 33.7928C127.143 33.6008 126.54 33.3248 126 32.9648L126.684 31.6238C127.698 32.2658 128.778 32.5868 129.924 32.5868C130.92 32.5868 131.691 32.3438 132.237 31.8578C132.783 31.3718 133.056 30.6728 133.056 29.7608ZM130.05 28.4468C130.602 28.4468 131.103 28.3178 131.553 28.0598C132.009 27.7958 132.369 27.4298 132.633 26.9618C132.903 26.4878 133.038 25.9388 133.038 25.3148C133.038 24.6908 132.903 24.1448 132.633 23.6768C132.369 23.2028 132.009 22.8368 131.553 22.5788C131.103 22.3148 130.602 22.1828 130.05 22.1828C129.498 22.1828 128.994 22.3148 128.538 22.5788C128.088 22.8368 127.728 23.2028 127.458 23.6768C127.194 24.1448 127.062 24.6908 127.062 25.3148C127.062 25.9388 127.194 26.4878 127.458 26.9618C127.728 27.4298 128.088 27.7958 128.538 28.0598C128.994 28.3178 129.498 28.4468 130.05 28.4468ZM144.779 27.6548L145.535 28.9328C145.031 29.3108 144.443 29.6048 143.771 29.8148C143.105 30.0188 142.415 30.1208 141.701 30.1208C140.741 30.1208 139.901 29.9258 139.181 29.5358C138.461 29.1458 137.9 28.5968 137.498 27.8888C137.102 27.1808 136.904 26.3528 136.904 25.4048C136.904 24.4748 137.096 23.6558 137.48 22.9478C137.864 22.2398 138.395 21.6878 139.073 21.2918C139.757 20.8898 140.543 20.6888 141.431 20.6888C142.733 20.6888 143.759 21.0848 144.509 21.8768C145.265 22.6628 145.643 23.7488 145.643 25.1348V26.1428H138.677C138.809 26.9168 139.148 27.5258 139.694 27.9698C140.246 28.4078 140.957 28.6268 141.827 28.6268C142.349 28.6268 142.856 28.5428 143.348 28.3748C143.84 28.2068 144.317 27.9668 144.779 27.6548ZM141.431 22.1108C140.645 22.1108 140.009 22.3448 139.523 22.8128C139.043 23.2808 138.752 23.9288 138.65 24.7568H143.933V24.6668C143.933 23.8988 143.705 23.2808 143.249 22.8128C142.799 22.3448 142.193 22.1108 141.431 22.1108ZM149.704 29.9048H148.012V20.9048H149.65L149.686 22.4978C150.022 21.9758 150.475 21.5588 151.045 21.2468C151.615 20.9348 152.236 20.7788 152.908 20.7788C153.034 20.7788 153.175 20.7878 153.331 20.8058C153.493 20.8178 153.622 20.8328 153.718 20.8508V22.3808C153.52 22.3448 153.268 22.3268 152.962 22.3268C151.972 22.3268 151.18 22.6538 150.586 23.3078C149.998 23.9618 149.704 24.8348 149.704 25.9268V29.9048Z" fill="#232323"/>
<defs>
<radialGradient id="paint0_radial_104_740" cx="0" cy="0" r="1" gradientUnits="userSpaceOnUse" gradientTransform="translate(7.6729 45.8084) scale(50.3892)">
<stop stop-color="#0099FF"/>
<stop offset="0.6" stop-color="#A033FF"/>
<stop offset="0.9" stop-color="#FF5280"/>
<stop offset="1" stop-color="#FF7061"/>
</radialGradient>
</defs>
</svg>
