<svg width="48" height="32" viewBox="0 0 48 32" fill="none" xmlns="http://www.w3.org/2000/svg">
<path fill-rule="evenodd" clip-rule="evenodd" d="M34.56 0C30.6115 0 27.5249 2.97395 24.7308 6.75178C20.8911 1.86289 17.68 0 13.8372 0C6.00276 0 0 10.1959 0 20.9876C0 27.7407 3.26706 32 8.73931 32C12.6779 32 15.5105 30.1432 20.5462 21.3407C20.5462 21.3407 22.6453 17.6338 24.0894 15.0803C24.5954 15.8973 25.1284 16.7777 25.6883 17.7214L28.0497 21.6938C32.6496 29.3913 35.2125 32 39.8566 32C45.1876 32 48.1545 27.6825 48.1545 20.789C48.1545 9.48965 42.0164 0 34.56 0ZM16.7062 18.9572C12.6234 25.3572 11.211 26.7917 8.93793 26.7917C6.59862 26.7917 5.20828 24.738 5.20828 21.0759C5.20828 13.2414 9.11448 5.23035 13.771 5.23035C16.2927 5.23035 18.4 6.68667 21.6278 11.3076C18.5628 16.0087 16.7062 18.9572 16.7062 18.9572ZM32.1151 18.1516L29.2918 13.4428C28.5277 12.2002 27.7934 11.0564 27.0889 10.0115C29.6336 6.08393 31.7326 4.1269 34.229 4.1269C39.4152 4.1269 43.5641 11.7628 43.5641 21.1421C43.5641 24.7172 42.3932 26.7917 39.9669 26.7917C37.6414 26.7917 36.5305 25.2559 32.1151 18.1516Z" fill="#C4E0E8"/>
</svg>
