<svg width="165" height="48" viewBox="0 0 165 48" fill="none" xmlns="http://www.w3.org/2000/svg">
<g clip-path="url(#clip0_104_779)">
<path fill-rule="evenodd" clip-rule="evenodd" d="M34.56 8C30.6115 8 27.5249 10.974 24.7308 14.7518C20.8911 9.86289 17.68 8 13.8372 8C6.00276 8 0 18.1959 0 28.9876C0 35.7407 3.26706 40 8.73931 40C12.6779 40 15.5105 38.1432 20.5462 29.3407C20.5462 29.3407 22.6453 25.6338 24.0894 23.0803C24.5954 23.8973 25.1284 24.7777 25.6883 25.7214L28.0497 29.6938C32.6496 37.3913 35.2125 40 39.8566 40C45.1876 40 48.1545 35.6825 48.1545 28.789C48.1545 17.4897 42.0164 8 34.56 8ZM16.7062 26.9572C12.6234 33.3572 11.211 34.7917 8.93793 34.7917C6.59862 34.7917 5.20828 32.738 5.20828 29.0759C5.20828 21.2414 9.11448 13.2303 13.771 13.2303C16.2927 13.2303 18.4 14.6867 21.6278 19.3076C18.5628 24.0087 16.7062 26.9572 16.7062 26.9572ZM32.1151 26.1516L29.2918 21.4428C28.5277 20.2002 27.7934 19.0564 27.0889 18.0115C29.6336 14.0839 31.7326 12.1269 34.229 12.1269C39.4152 12.1269 43.5641 19.7628 43.5641 29.1421C43.5641 32.7172 42.3931 34.7917 39.9669 34.7917C37.6414 34.7917 36.5305 33.2559 32.1151 26.1516Z" fill="#C4E0E8"/>
</g>
<path d="M75.228 31H73.5V21.307L69.171 29.11H67.641L63.312 21.307V31H61.584V18.4H63.6L68.442 27.283L73.284 18.4H75.228V31ZM85.6157 28.75L86.3717 30.028C85.8677 30.406 85.2797 30.7 84.6077 30.91C83.9417 31.114 83.2517 31.216 82.5377 31.216C81.5777 31.216 80.7377 31.021 80.0177 30.631C79.2977 30.241 78.7367 29.692 78.3347 28.984C77.9387 28.276 77.7407 27.448 77.7407 26.5C77.7407 25.57 77.9327 24.751 78.3167 24.043C78.7007 23.335 79.2317 22.783 79.9097 22.387C80.5937 21.985 81.3797 21.784 82.2677 21.784C83.5697 21.784 84.5957 22.18 85.3457 22.972C86.1017 23.758 86.4797 24.844 86.4797 26.23V27.238H79.5137C79.6457 28.012 79.9847 28.621 80.5307 29.065C81.0827 29.503 81.7937 29.722 82.6637 29.722C83.1857 29.722 83.6927 29.638 84.1847 29.47C84.6767 29.302 85.1537 29.062 85.6157 28.75ZM82.2677 23.206C81.4817 23.206 80.8457 23.44 80.3597 23.908C79.8797 24.376 79.5887 25.024 79.4867 25.852H84.7697V25.762C84.7697 24.994 84.5417 24.376 84.0857 23.908C83.6357 23.44 83.0297 23.206 82.2677 23.206ZM93.8747 29.488V30.928C93.6467 30.964 93.4097 30.994 93.1637 31.018C92.9177 31.042 92.6747 31.054 92.4347 31.054C91.3307 31.054 90.5297 30.775 90.0317 30.217C89.5337 29.659 89.2847 28.807 89.2847 27.661V23.458H87.6107V22H89.2847V19.282H90.9767V22H93.9107L93.6947 23.458H90.9767V27.562C90.9767 28.318 91.1297 28.84 91.4357 29.128C91.7477 29.416 92.2367 29.56 92.9027 29.56C93.2447 29.56 93.5687 29.536 93.8747 29.488ZM104.459 31H102.821L102.785 29.641C102.419 30.121 101.942 30.505 101.354 30.793C100.766 31.075 100.127 31.216 99.4372 31.216C98.6032 31.216 97.8562 31.012 97.1962 30.604C96.5422 30.196 96.0262 29.638 95.6482 28.93C95.2702 28.216 95.0812 27.406 95.0812 26.5C95.0812 25.594 95.2702 24.787 95.6482 24.079C96.0262 23.365 96.5422 22.804 97.1962 22.396C97.8562 21.988 98.6032 21.784 99.4372 21.784C100.127 21.784 100.766 21.928 101.354 22.216C101.942 22.498 102.419 22.879 102.785 23.359L102.821 22H104.459V31ZM99.7972 29.722C100.379 29.722 100.895 29.584 101.345 29.308C101.795 29.032 102.146 28.654 102.398 28.174C102.656 27.688 102.785 27.13 102.785 26.5C102.785 25.87 102.656 25.315 102.398 24.835C102.146 24.349 101.795 23.968 101.345 23.692C100.895 23.416 100.379 23.278 99.7972 23.278C99.2152 23.278 98.6992 23.416 98.2492 23.692C97.7992 23.968 97.4452 24.349 97.1872 24.835C96.9352 25.315 96.8092 25.87 96.8092 26.5C96.8092 27.13 96.9352 27.688 97.1872 28.174C97.4452 28.654 97.7992 29.032 98.2492 29.308C98.6992 29.584 99.2152 29.722 99.7972 29.722ZM113.994 31H112.248V18.4H117.036C118.56 18.4 119.742 18.778 120.582 19.534C121.422 20.29 121.842 21.34 121.842 22.684C121.842 24.028 121.422 25.078 120.582 25.834C119.742 26.59 118.56 26.968 117.036 26.968H113.994V31ZM117.036 19.912H113.994V25.456H117.036C117.984 25.456 118.725 25.213 119.259 24.727C119.793 24.241 120.06 23.56 120.06 22.684C120.06 21.808 119.793 21.127 119.259 20.641C118.725 20.155 117.984 19.912 117.036 19.912ZM127.917 31.216C126.981 31.216 126.159 31.015 125.451 30.613C124.743 30.211 124.191 29.656 123.795 28.948C123.399 28.24 123.201 27.424 123.201 26.5C123.201 25.576 123.399 24.76 123.795 24.052C124.191 23.344 124.743 22.789 125.451 22.387C126.159 21.985 126.981 21.784 127.917 21.784C128.853 21.784 129.675 21.985 130.383 22.387C131.091 22.789 131.643 23.344 132.039 24.052C132.435 24.76 132.633 25.576 132.633 26.5C132.633 27.424 132.435 28.24 132.039 28.948C131.643 29.656 131.091 30.211 130.383 30.613C129.675 31.015 128.853 31.216 127.917 31.216ZM127.917 29.722C128.499 29.722 129.015 29.584 129.465 29.308C129.915 29.032 130.266 28.654 130.518 28.174C130.776 27.688 130.905 27.13 130.905 26.5C130.905 25.87 130.776 25.315 130.518 24.835C130.266 24.349 129.915 23.968 129.465 23.692C129.015 23.416 128.499 23.278 127.917 23.278C127.335 23.278 126.819 23.416 126.369 23.692C125.919 23.968 125.565 24.349 125.307 24.835C125.055 25.315 124.929 25.87 124.929 26.5C124.929 27.13 125.055 27.688 125.307 28.174C125.565 28.654 125.919 29.032 126.369 29.308C126.819 29.584 127.335 29.722 127.917 29.722ZM136.528 31H134.836V22H136.474L136.51 23.593C136.846 23.071 137.299 22.654 137.869 22.342C138.439 22.03 139.06 21.874 139.732 21.874C139.858 21.874 139.999 21.883 140.155 21.901C140.317 21.913 140.446 21.928 140.542 21.946V23.476C140.344 23.44 140.092 23.422 139.786 23.422C138.796 23.422 138.004 23.749 137.41 24.403C136.822 25.057 136.528 25.93 136.528 27.022V31ZM147.777 29.488V30.928C147.549 30.964 147.312 30.994 147.066 31.018C146.82 31.042 146.577 31.054 146.337 31.054C145.233 31.054 144.432 30.775 143.934 30.217C143.436 29.659 143.187 28.807 143.187 27.661V23.458H141.513V22H143.187V19.282H144.879V22H147.813L147.597 23.458H144.879V27.562C144.879 28.318 145.032 28.84 145.338 29.128C145.65 29.416 146.139 29.56 146.805 29.56C147.147 29.56 147.471 29.536 147.777 29.488ZM158.361 31H156.723L156.687 29.641C156.321 30.121 155.844 30.505 155.256 30.793C154.668 31.075 154.029 31.216 153.339 31.216C152.505 31.216 151.758 31.012 151.098 30.604C150.444 30.196 149.928 29.638 149.55 28.93C149.172 28.216 148.983 27.406 148.983 26.5C148.983 25.594 149.172 24.787 149.55 24.079C149.928 23.365 150.444 22.804 151.098 22.396C151.758 21.988 152.505 21.784 153.339 21.784C154.029 21.784 154.668 21.928 155.256 22.216C155.844 22.498 156.321 22.879 156.687 23.359L156.723 22H158.361V31ZM153.699 29.722C154.281 29.722 154.797 29.584 155.247 29.308C155.697 29.032 156.048 28.654 156.3 28.174C156.558 27.688 156.687 27.13 156.687 26.5C156.687 25.87 156.558 25.315 156.3 24.835C156.048 24.349 155.697 23.968 155.247 23.692C154.797 23.416 154.281 23.278 153.699 23.278C153.117 23.278 152.601 23.416 152.151 23.692C151.701 23.968 151.347 24.349 151.089 24.835C150.837 25.315 150.711 25.87 150.711 26.5C150.711 27.13 150.837 27.688 151.089 28.174C151.347 28.654 151.701 29.032 152.151 29.308C152.601 29.584 153.117 29.722 153.699 29.722ZM162.75 31H161.058V17.59L162.75 17.41V31Z" fill="#232323"/>
<defs>
<clipPath id="clip0_104_779">
<rect width="48" height="48" fill="white"/>
</clipPath>
</defs>
</svg>
