<svg width="163" height="48" viewBox="0 0 163 48" fill="none" xmlns="http://www.w3.org/2000/svg">
<g clip-path="url(#clip0_104_764)">
<path fill-rule="evenodd" clip-rule="evenodd" d="M34.56 8C30.6115 8 27.5249 10.974 24.7308 14.7518C20.8911 9.86289 17.68 8 13.8372 8C6.00276 8 0 18.1959 0 28.9876C0 35.7407 3.26706 40 8.73931 40C12.6779 40 15.5105 38.1432 20.5462 29.3407C20.5462 29.3407 22.6453 25.6338 24.0894 23.0803C24.5954 23.8973 25.1284 24.7777 25.6883 25.7214L28.0497 29.6938C32.6496 37.3913 35.2125 40 39.8566 40C45.1876 40 48.1545 35.6825 48.1545 28.789C48.1545 17.4897 42.0164 8 34.56 8ZM16.7062 26.9572C12.6234 33.3572 11.211 34.7917 8.93793 34.7917C6.59862 34.7917 5.20828 32.738 5.20828 29.0759C5.20828 21.2414 9.11448 13.2303 13.771 13.2303C16.2927 13.2303 18.4 14.6867 21.6278 19.3076C18.5628 24.0087 16.7062 26.9572 16.7062 26.9572ZM32.1151 26.1516L29.2918 21.4428C28.5277 20.2002 27.7934 19.0564 27.0889 18.0115C29.6336 14.0839 31.7326 12.1269 34.229 12.1269C39.4152 12.1269 43.5641 19.7628 43.5641 29.1421C43.5641 32.7172 42.3931 34.7917 39.9669 34.7917C37.6414 34.7917 36.5305 33.2559 32.1151 26.1516Z" fill="black"/>
</g>
<path d="M75.228 31H73.5V21.307L69.171 29.11H67.641L63.312 21.307V31H61.584V18.4H63.6L68.442 27.283L73.284 18.4H75.228V31ZM85.6157 28.75L86.3717 30.028C85.8677 30.406 85.2797 30.7 84.6077 30.91C83.9417 31.114 83.2517 31.216 82.5377 31.216C81.5777 31.216 80.7377 31.021 80.0177 30.631C79.2977 30.241 78.7367 29.692 78.3347 28.984C77.9387 28.276 77.7407 27.448 77.7407 26.5C77.7407 25.57 77.9327 24.751 78.3167 24.043C78.7007 23.335 79.2317 22.783 79.9097 22.387C80.5937 21.985 81.3797 21.784 82.2677 21.784C83.5697 21.784 84.5957 22.18 85.3457 22.972C86.1017 23.758 86.4797 24.844 86.4797 26.23V27.238H79.5137C79.6457 28.012 79.9847 28.621 80.5307 29.065C81.0827 29.503 81.7937 29.722 82.6637 29.722C83.1857 29.722 83.6927 29.638 84.1847 29.47C84.6767 29.302 85.1537 29.062 85.6157 28.75ZM82.2677 23.206C81.4817 23.206 80.8457 23.44 80.3597 23.908C79.8797 24.376 79.5887 25.024 79.4867 25.852H84.7697V25.762C84.7697 24.994 84.5417 24.376 84.0857 23.908C83.6357 23.44 83.0297 23.206 82.2677 23.206ZM93.8747 29.488V30.928C93.6467 30.964 93.4097 30.994 93.1637 31.018C92.9177 31.042 92.6747 31.054 92.4347 31.054C91.3307 31.054 90.5297 30.775 90.0317 30.217C89.5337 29.659 89.2847 28.807 89.2847 27.661V23.458H87.6107V22H89.2847V19.282H90.9767V22H93.9107L93.6947 23.458H90.9767V27.562C90.9767 28.318 91.1297 28.84 91.4357 29.128C91.7477 29.416 92.2367 29.56 92.9027 29.56C93.2447 29.56 93.5687 29.536 93.8747 29.488ZM104.459 31H102.821L102.785 29.641C102.419 30.121 101.942 30.505 101.354 30.793C100.766 31.075 100.127 31.216 99.4372 31.216C98.6032 31.216 97.8562 31.012 97.1962 30.604C96.5422 30.196 96.0262 29.638 95.6482 28.93C95.2702 28.216 95.0812 27.406 95.0812 26.5C95.0812 25.594 95.2702 24.787 95.6482 24.079C96.0262 23.365 96.5422 22.804 97.1962 22.396C97.8562 21.988 98.6032 21.784 99.4372 21.784C100.127 21.784 100.766 21.928 101.354 22.216C101.942 22.498 102.419 22.879 102.785 23.359L102.821 22H104.459V31ZM99.7972 29.722C100.379 29.722 100.895 29.584 101.345 29.308C101.795 29.032 102.146 28.654 102.398 28.174C102.656 27.688 102.785 27.13 102.785 26.5C102.785 25.87 102.656 25.315 102.398 24.835C102.146 24.349 101.795 23.968 101.345 23.692C100.895 23.416 100.379 23.278 99.7972 23.278C99.2152 23.278 98.6992 23.416 98.2492 23.692C97.7992 23.968 97.4452 24.349 97.1872 24.835C96.9352 25.315 96.8092 25.87 96.8092 26.5C96.8092 27.13 96.9352 27.688 97.1872 28.174C97.4452 28.654 97.7992 29.032 98.2492 29.308C98.6992 29.584 99.2152 29.722 99.7972 29.722ZM117.81 31.27C116.55 31.27 115.44 30.994 114.48 30.442C113.52 29.884 112.77 29.113 112.23 28.129C111.69 27.139 111.42 25.996 111.42 24.7C111.42 23.404 111.69 22.264 112.23 21.28C112.77 20.29 113.52 19.519 114.48 18.967C115.44 18.409 116.55 18.13 117.81 18.13C119.07 18.13 120.18 18.409 121.14 18.967C122.1 19.519 122.85 20.29 123.39 21.28C123.93 22.264 124.2 23.404 124.2 24.7C124.2 25.636 124.053 26.497 123.759 27.283C123.471 28.069 123.063 28.75 122.535 29.326L124.182 31.108L123.048 32.224L121.311 30.334C120.819 30.634 120.279 30.865 119.691 31.027C119.103 31.189 118.476 31.27 117.81 31.27ZM117.81 29.749C118.71 29.749 119.514 29.539 120.222 29.119L118.044 26.806L119.124 25.744L121.365 28.12C121.707 27.688 121.974 27.184 122.166 26.608C122.358 26.032 122.454 25.396 122.454 24.7C122.454 23.734 122.253 22.876 121.851 22.126C121.455 21.37 120.906 20.776 120.204 20.344C119.508 19.912 118.71 19.696 117.81 19.696C116.91 19.696 116.115 19.909 115.425 20.335C114.735 20.761 114.195 21.352 113.805 22.108C113.415 22.858 113.22 23.722 113.22 24.7C113.22 25.678 113.415 26.548 113.805 27.31C114.195 28.066 114.735 28.663 115.425 29.101C116.115 29.533 116.91 29.749 117.81 29.749ZM134.657 31H133.019L132.983 29.65C132.641 30.124 132.188 30.505 131.624 30.793C131.06 31.075 130.439 31.216 129.761 31.216C128.669 31.216 127.82 30.883 127.214 30.217C126.608 29.545 126.305 28.624 126.305 27.454V22H127.997V27.238C127.997 28.012 128.186 28.621 128.564 29.065C128.942 29.503 129.479 29.722 130.175 29.722C131.039 29.722 131.72 29.446 132.218 28.894C132.716 28.342 132.965 27.628 132.965 26.752V22H134.657V31ZM144.721 28.75L145.477 30.028C144.973 30.406 144.385 30.7 143.713 30.91C143.047 31.114 142.357 31.216 141.643 31.216C140.683 31.216 139.843 31.021 139.123 30.631C138.403 30.241 137.842 29.692 137.44 28.984C137.044 28.276 136.846 27.448 136.846 26.5C136.846 25.57 137.038 24.751 137.422 24.043C137.806 23.335 138.337 22.783 139.015 22.387C139.699 21.985 140.485 21.784 141.373 21.784C142.675 21.784 143.701 22.18 144.451 22.972C145.207 23.758 145.585 24.844 145.585 26.23V27.238H138.619C138.751 28.012 139.09 28.621 139.636 29.065C140.188 29.503 140.899 29.722 141.769 29.722C142.291 29.722 142.798 29.638 143.29 29.47C143.782 29.302 144.259 29.062 144.721 28.75ZM141.373 23.206C140.587 23.206 139.951 23.44 139.465 23.908C138.985 24.376 138.694 25.024 138.592 25.852H143.875V25.762C143.875 24.994 143.647 24.376 143.191 23.908C142.741 23.44 142.135 23.206 141.373 23.206ZM147.061 30.1L147.772 28.822C148.276 29.122 148.801 29.347 149.347 29.497C149.899 29.647 150.454 29.722 151.012 29.722C151.666 29.722 152.143 29.623 152.443 29.425C152.749 29.227 152.902 28.948 152.902 28.588C152.902 28.198 152.719 27.922 152.353 27.76C151.987 27.598 151.387 27.415 150.553 27.211C149.977 27.073 149.437 26.905 148.933 26.707C148.429 26.509 148.021 26.236 147.709 25.888C147.397 25.54 147.241 25.069 147.241 24.475C147.241 23.905 147.391 23.419 147.691 23.017C147.997 22.615 148.408 22.309 148.924 22.099C149.44 21.889 150.016 21.784 150.652 21.784C151.318 21.784 151.984 21.889 152.65 22.099C153.316 22.309 153.877 22.567 154.333 22.873L153.622 24.142C153.184 23.878 152.713 23.668 152.209 23.512C151.705 23.35 151.201 23.269 150.697 23.269C150.187 23.269 149.77 23.359 149.446 23.539C149.122 23.719 148.96 24.001 148.96 24.385C148.96 24.781 149.152 25.063 149.536 25.231C149.926 25.393 150.52 25.57 151.318 25.762C151.924 25.906 152.476 26.08 152.974 26.284C153.478 26.488 153.88 26.764 154.18 27.112C154.48 27.46 154.63 27.934 154.63 28.534C154.63 29.386 154.309 30.046 153.667 30.514C153.031 30.982 152.155 31.216 151.039 31.216C150.229 31.216 149.476 31.105 148.78 30.883C148.09 30.661 147.517 30.4 147.061 30.1ZM161.932 29.488V30.928C161.704 30.964 161.467 30.994 161.221 31.018C160.975 31.042 160.732 31.054 160.492 31.054C159.388 31.054 158.587 30.775 158.089 30.217C157.591 29.659 157.342 28.807 157.342 27.661V23.458H155.668V22H157.342V19.282H159.034V22H161.968L161.752 23.458H159.034V27.562C159.034 28.318 159.187 28.84 159.493 29.128C159.805 29.416 160.294 29.56 160.96 29.56C161.302 29.56 161.626 29.536 161.932 29.488Z" fill="#232323"/>
<defs>
<clipPath id="clip0_104_764">
<rect width="48" height="48" fill="white"/>
</clipPath>
</defs>
</svg>
