<svg width="151" height="32" viewBox="0 0 151 32" fill="none" xmlns="http://www.w3.org/2000/svg">
<g clip-path="url(#clip0_104_506)">
<path d="M17.62 20.0466L21.6667 16L17.62 11.9533" stroke="#677B8C" stroke-width="1.5" stroke-miterlimit="10" stroke-linecap="round" stroke-linejoin="round"/>
<path d="M10.3333 16L21.5533 16" stroke="#677B8C" stroke-width="1.5" stroke-miterlimit="10" stroke-linecap="round" stroke-linejoin="round"/>
</g>
<rect x="0.5" y="0.5" width="31" height="31" rx="15.5" stroke="#677B8C"/>
<path d="M46.846 21.785L47.629 20.408C48.235 20.798 48.916 21.113 49.672 21.353C50.428 21.587 51.172 21.704 51.904 21.704C52.81 21.704 53.524 21.527 54.046 21.173C54.574 20.813 54.838 20.327 54.838 19.715C54.838 19.217 54.709 18.83 54.451 18.554C54.193 18.272 53.815 18.05 53.317 17.888C52.819 17.72 52.213 17.558 51.499 17.402C50.629 17.21 49.861 16.97 49.195 16.682C48.529 16.388 48.01 15.998 47.638 15.512C47.266 15.02 47.08 14.384 47.08 13.604C47.08 12.854 47.281 12.221 47.683 11.705C48.091 11.189 48.631 10.799 49.303 10.535C49.981 10.265 50.728 10.13 51.544 10.13C52.372 10.13 53.194 10.244 54.01 10.472C54.832 10.7 55.582 11.051 56.26 11.525L55.477 12.884C54.919 12.512 54.292 12.218 53.596 12.002C52.906 11.786 52.225 11.678 51.553 11.678C50.809 11.678 50.173 11.828 49.645 12.128C49.123 12.428 48.862 12.905 48.862 13.559C48.862 14.033 48.991 14.405 49.249 14.675C49.513 14.945 49.894 15.161 50.392 15.323C50.896 15.485 51.505 15.644 52.219 15.8C53.089 15.992 53.857 16.235 54.523 16.529C55.189 16.823 55.708 17.219 56.08 17.717C56.452 18.215 56.638 18.866 56.638 19.67C56.638 20.414 56.434 21.056 56.026 21.596C55.624 22.13 55.066 22.544 54.352 22.838C53.644 23.126 52.828 23.27 51.904 23.27C50.962 23.27 50.035 23.132 49.123 22.856C48.211 22.58 47.452 22.223 46.846 21.785ZM66.1095 20.75L66.8655 22.028C66.3615 22.406 65.7735 22.7 65.1015 22.91C64.4355 23.114 63.7455 23.216 63.0315 23.216C62.0715 23.216 61.2315 23.021 60.5115 22.631C59.7915 22.241 59.2305 21.692 58.8285 20.984C58.4325 20.276 58.2345 19.448 58.2345 18.5C58.2345 17.57 58.4265 16.751 58.8105 16.043C59.1945 15.335 59.7255 14.783 60.4035 14.387C61.0875 13.985 61.8735 13.784 62.7615 13.784C64.0635 13.784 65.0895 14.18 65.8395 14.972C66.5955 15.758 66.9735 16.844 66.9735 18.23V19.238H60.0075C60.1395 20.012 60.4785 20.621 61.0245 21.065C61.5765 21.503 62.2875 21.722 63.1575 21.722C63.6795 21.722 64.1865 21.638 64.6785 21.47C65.1705 21.302 65.6475 21.062 66.1095 20.75ZM62.7615 15.206C61.9755 15.206 61.3395 15.44 60.8535 15.908C60.3735 16.376 60.0825 17.024 59.9805 17.852H65.2635V17.762C65.2635 16.994 65.0355 16.376 64.5795 15.908C64.1295 15.44 63.5235 15.206 62.7615 15.206ZM76.3576 20.75L77.1136 22.028C76.6096 22.406 76.0216 22.7 75.3496 22.91C74.6836 23.114 73.9936 23.216 73.2796 23.216C72.3196 23.216 71.4796 23.021 70.7596 22.631C70.0396 22.241 69.4786 21.692 69.0766 20.984C68.6806 20.276 68.4826 19.448 68.4826 18.5C68.4826 17.57 68.6746 16.751 69.0586 16.043C69.4426 15.335 69.9736 14.783 70.6516 14.387C71.3356 13.985 72.1216 13.784 73.0096 13.784C74.3116 13.784 75.3376 14.18 76.0876 14.972C76.8436 15.758 77.2216 16.844 77.2216 18.23V19.238H70.2556C70.3876 20.012 70.7266 20.621 71.2726 21.065C71.8246 21.503 72.5356 21.722 73.4056 21.722C73.9276 21.722 74.4346 21.638 74.9266 21.47C75.4186 21.302 75.8956 21.062 76.3576 20.75ZM73.0096 15.206C72.2236 15.206 71.5876 15.44 71.1016 15.908C70.6216 16.376 70.3306 17.024 70.2286 17.852H75.5116V17.762C75.5116 16.994 75.2836 16.376 74.8276 15.908C74.3776 15.44 73.7716 15.206 73.0096 15.206ZM93.9883 23L92.5393 19.67H86.2483L84.8083 23H82.9903L88.5163 10.4H90.3523L95.8783 23H93.9883ZM89.3983 12.416L86.8963 18.176H91.8913L89.3983 12.416ZM99.0848 23H97.3928V9.59L99.0848 9.41V23ZM103.304 23H101.612V9.59L103.304 9.41V23ZM116.394 18.158V10.4H118.158V18.158C118.158 19.862 117.753 21.14 116.943 21.992C116.139 22.844 114.972 23.27 113.442 23.27C112.758 23.27 112.071 23.147 111.381 22.901C110.697 22.649 110.076 22.31 109.518 21.884L110.355 20.534C110.871 20.93 111.378 21.218 111.876 21.398C112.374 21.578 112.896 21.668 113.442 21.668C114.426 21.668 115.164 21.389 115.656 20.831C116.148 20.273 116.394 19.382 116.394 18.158ZM125.036 23.216C124.1 23.216 123.278 23.015 122.57 22.613C121.862 22.211 121.31 21.656 120.914 20.948C120.518 20.24 120.32 19.424 120.32 18.5C120.32 17.576 120.518 16.76 120.914 16.052C121.31 15.344 121.862 14.789 122.57 14.387C123.278 13.985 124.1 13.784 125.036 13.784C125.972 13.784 126.794 13.985 127.502 14.387C128.21 14.789 128.762 15.344 129.158 16.052C129.554 16.76 129.752 17.576 129.752 18.5C129.752 19.424 129.554 20.24 129.158 20.948C128.762 21.656 128.21 22.211 127.502 22.613C126.794 23.015 125.972 23.216 125.036 23.216ZM125.036 21.722C125.618 21.722 126.134 21.584 126.584 21.308C127.034 21.032 127.385 20.654 127.637 20.174C127.895 19.688 128.024 19.13 128.024 18.5C128.024 17.87 127.895 17.315 127.637 16.835C127.385 16.349 127.034 15.968 126.584 15.692C126.134 15.416 125.618 15.278 125.036 15.278C124.454 15.278 123.938 15.416 123.488 15.692C123.038 15.968 122.684 16.349 122.426 16.835C122.174 17.315 122.048 17.87 122.048 18.5C122.048 19.13 122.174 19.688 122.426 20.174C122.684 20.654 123.038 21.032 123.488 21.308C123.938 21.584 124.454 21.722 125.036 21.722ZM133.414 23H131.776V9.59L133.468 9.41V15.332C133.84 14.858 134.317 14.483 134.899 14.207C135.481 13.925 136.114 13.784 136.798 13.784C137.632 13.784 138.376 13.988 139.03 14.396C139.69 14.804 140.209 15.365 140.587 16.079C140.965 16.787 141.154 17.594 141.154 18.5C141.154 19.406 140.965 20.216 140.587 20.93C140.209 21.638 139.69 22.196 139.03 22.604C138.376 23.012 137.632 23.216 136.798 23.216C136.108 23.216 135.469 23.075 134.881 22.793C134.293 22.505 133.816 22.121 133.45 21.641L133.414 23ZM136.438 21.722C137.02 21.722 137.536 21.584 137.986 21.308C138.436 21.032 138.787 20.654 139.039 20.174C139.297 19.688 139.426 19.13 139.426 18.5C139.426 17.87 139.297 17.315 139.039 16.835C138.787 16.349 138.436 15.968 137.986 15.692C137.536 15.416 137.02 15.278 136.438 15.278C135.856 15.278 135.34 15.416 134.89 15.692C134.44 15.968 134.086 16.349 133.828 16.835C133.576 17.315 133.45 17.87 133.45 18.5C133.45 19.13 133.576 19.688 133.828 20.174C134.086 20.654 134.44 21.032 134.89 21.308C135.34 21.584 135.856 21.722 136.438 21.722ZM142.396 22.1L143.107 20.822C143.611 21.122 144.136 21.347 144.682 21.497C145.234 21.647 145.789 21.722 146.347 21.722C147.001 21.722 147.478 21.623 147.778 21.425C148.084 21.227 148.237 20.948 148.237 20.588C148.237 20.198 148.054 19.922 147.688 19.76C147.322 19.598 146.722 19.415 145.888 19.211C145.312 19.073 144.772 18.905 144.268 18.707C143.764 18.509 143.356 18.236 143.044 17.888C142.732 17.54 142.576 17.069 142.576 16.475C142.576 15.905 142.726 15.419 143.026 15.017C143.332 14.615 143.743 14.309 144.259 14.099C144.775 13.889 145.351 13.784 145.987 13.784C146.653 13.784 147.319 13.889 147.985 14.099C148.651 14.309 149.212 14.567 149.668 14.873L148.957 16.142C148.519 15.878 148.048 15.668 147.544 15.512C147.04 15.35 146.536 15.269 146.032 15.269C145.522 15.269 145.105 15.359 144.781 15.539C144.457 15.719 144.295 16.001 144.295 16.385C144.295 16.781 144.487 17.063 144.871 17.231C145.261 17.393 145.855 17.57 146.653 17.762C147.259 17.906 147.811 18.08 148.309 18.284C148.813 18.488 149.215 18.764 149.515 19.112C149.815 19.46 149.965 19.934 149.965 20.534C149.965 21.386 149.644 22.046 149.002 22.514C148.366 22.982 147.49 23.216 146.374 23.216C145.564 23.216 144.811 23.105 144.115 22.883C143.425 22.661 142.852 22.4 142.396 22.1Z" fill="#677B8C"/>
<defs>
<clipPath id="clip0_104_506">
<rect width="16" height="16" fill="white" transform="translate(24 24) rotate(-180)"/>
</clipPath>
</defs>
</svg>
