<svg width="153" height="46" viewBox="0 0 153 46" fill="none" xmlns="http://www.w3.org/2000/svg">
<path d="M0 45.7809L3.28468 33.5785C0.635667 28.8251 -0.205949 23.2782 0.914264 17.9558C2.03448 12.6334 5.04138 7.89241 9.3832 4.60285C13.725 1.3133 19.1105 -0.304166 24.5514 0.0472566C29.9924 0.39868 35.1238 2.69542 39.004 6.51603C42.8842 10.3366 45.253 15.4248 45.6757 20.8469C46.0984 26.269 44.5467 31.6613 41.3052 36.0342C38.0637 40.4072 33.3499 43.4676 28.0289 44.6537C22.7078 45.8399 17.1364 45.0722 12.3369 42.4917L0 45.7809ZM12.9318 37.9255L13.6948 38.3769C17.1711 40.4322 21.2314 41.2827 25.2429 40.7959C29.2545 40.3091 32.9919 38.5124 35.8728 35.6857C38.7537 32.8589 40.6162 29.1611 41.1701 25.1683C41.724 21.1755 40.9382 17.1121 38.9351 13.6113C36.932 10.1105 33.8242 7.36893 30.0959 5.81387C26.3676 4.25881 22.2283 3.97759 18.3231 5.01403C14.4179 6.05047 10.966 8.34636 8.50555 11.5439C6.04506 14.7415 4.7141 18.661 4.7201 22.6919C4.71683 26.0341 5.64351 29.3116 7.39698 32.1597L7.87546 32.9465L6.03915 39.7571L12.9318 37.9255Z" fill="#00D95F"/>
<path fill-rule="evenodd" clip-rule="evenodd" d="M31.4498 25.8251C31.0025 25.4653 30.4788 25.212 29.9185 25.0846C29.3583 24.9572 28.7763 24.959 28.2168 25.0899C27.3762 25.4382 26.8331 26.7538 26.29 27.4117C26.1754 27.5694 26.0071 27.68 25.8167 27.7227C25.6262 27.7655 25.4266 27.7374 25.2554 27.6439C22.1781 26.4416 19.5986 24.237 17.936 21.3879C17.7942 21.2101 17.7271 20.9844 17.7488 20.7582C17.7705 20.5321 17.8794 20.3231 18.0524 20.1754C18.6582 19.5772 19.103 18.8364 19.3456 18.0213C19.3995 17.1223 19.193 16.2267 18.7507 15.4415C18.4088 14.3407 17.7582 13.3604 16.8756 12.6167C16.4204 12.4125 15.9157 12.344 15.4224 12.4195C14.929 12.495 14.4681 12.7113 14.0953 13.0423C13.448 13.5994 12.9342 14.2941 12.5918 15.0754C12.2494 15.8568 12.0871 16.7047 12.1167 17.5569C12.1187 18.0355 12.1795 18.512 12.2978 18.9758C12.5981 20.0902 13.0598 21.1548 13.6685 22.136C14.1077 22.8877 14.5869 23.6154 15.104 24.316C16.7845 26.6171 18.897 28.5709 21.3242 30.0689C22.5421 30.8301 23.8439 31.449 25.2037 31.9134C26.6163 32.5521 28.1759 32.7973 29.7169 32.6228C30.5949 32.4903 31.4268 32.1445 32.1394 31.6159C32.852 31.0874 33.4234 30.3922 33.8033 29.5916C34.0266 29.108 34.0943 28.5673 33.9973 28.0437C33.7645 26.9731 32.3291 26.3411 31.4498 25.8251Z" fill="#00D95F"/>
<path d="M72.252 29.8904H70.398L67.275 20.2964L64.152 29.8904H62.298L58.1759 17.2904H60.0569L63.2789 27.4604L66.447 17.6864H68.175L71.343 27.4604L74.565 17.2904H76.374L72.252 29.8904ZM86.6986 29.8904H85.0066V24.6524C85.0066 23.8784 84.8086 23.2724 84.4126 22.8344C84.0166 22.3904 83.4706 22.1684 82.7746 22.1684C81.9106 22.1684 81.2206 22.4444 80.7046 22.9964C80.1886 23.5484 79.9306 24.2624 79.9306 25.1384V29.8904H78.2386V16.4804L79.9306 16.3004V22.2224C80.2846 21.7544 80.7466 21.3794 81.3166 21.0974C81.8866 20.8154 82.5106 20.6744 83.1886 20.6744C84.2806 20.6744 85.1386 21.0104 85.7626 21.6824C86.3866 22.3484 86.6986 23.2664 86.6986 24.4364V29.8904ZM98.1911 29.8904H96.5531L96.5171 28.5314C96.1511 29.0114 95.6741 29.3954 95.0861 29.6834C94.4981 29.9654 93.8591 30.1064 93.1691 30.1064C92.3351 30.1064 91.5881 29.9024 90.9281 29.4944C90.2741 29.0864 89.7581 28.5284 89.3801 27.8204C89.0021 27.1064 88.8131 26.2964 88.8131 25.3904C88.8131 24.4844 89.0021 23.6774 89.3801 22.9694C89.7581 22.2554 90.2741 21.6944 90.9281 21.2864C91.5881 20.8784 92.3351 20.6744 93.1691 20.6744C93.8591 20.6744 94.4981 20.8184 95.0861 21.1064C95.6741 21.3884 96.1511 21.7694 96.5171 22.2494L96.5531 20.8904H98.1911V29.8904ZM93.5291 28.6124C94.1111 28.6124 94.6271 28.4744 95.0771 28.1984C95.5271 27.9224 95.8781 27.5444 96.1301 27.0644C96.3881 26.5784 96.5171 26.0204 96.5171 25.3904C96.5171 24.7604 96.3881 24.2054 96.1301 23.7254C95.8781 23.2394 95.5271 22.8584 95.0771 22.5824C94.6271 22.3064 94.1111 22.1684 93.5291 22.1684C92.9471 22.1684 92.4311 22.3064 91.9811 22.5824C91.5311 22.8584 91.1771 23.2394 90.9191 23.7254C90.6671 24.2054 90.5411 24.7604 90.5411 25.3904C90.5411 26.0204 90.6671 26.5784 90.9191 27.0644C91.1771 27.5444 91.5311 27.9224 91.9811 28.1984C92.4311 28.4744 92.9471 28.6124 93.5291 28.6124ZM106.09 28.3784V29.8184C105.862 29.8544 105.625 29.8844 105.379 29.9084C105.133 29.9324 104.89 29.9444 104.65 29.9444C103.546 29.9444 102.745 29.6654 102.247 29.1074C101.749 28.5494 101.5 27.6974 101.5 26.5514V22.3484H99.8257V20.8904H101.5V18.1724H103.192V20.8904H106.126L105.91 22.3484H103.192V26.4524C103.192 27.2084 103.345 27.7304 103.651 28.0184C103.963 28.3064 104.452 28.4504 105.118 28.4504C105.46 28.4504 105.784 28.4264 106.09 28.3784ZM107.505 28.9904L108.216 27.7124C108.72 28.0124 109.245 28.2374 109.791 28.3874C110.343 28.5374 110.898 28.6124 111.456 28.6124C112.11 28.6124 112.587 28.5134 112.887 28.3154C113.193 28.1174 113.346 27.8384 113.346 27.4784C113.346 27.0884 113.163 26.8124 112.797 26.6504C112.431 26.4884 111.831 26.3054 110.997 26.1014C110.421 25.9634 109.881 25.7954 109.377 25.5974C108.873 25.3994 108.465 25.1264 108.153 24.7784C107.841 24.4304 107.685 23.9594 107.685 23.3654C107.685 22.7954 107.835 22.3094 108.135 21.9074C108.441 21.5054 108.852 21.1994 109.368 20.9894C109.884 20.7794 110.46 20.6744 111.096 20.6744C111.762 20.6744 112.428 20.7794 113.094 20.9894C113.76 21.1994 114.321 21.4574 114.777 21.7634L114.066 23.0324C113.628 22.7684 113.157 22.5584 112.653 22.4024C112.149 22.2404 111.645 22.1594 111.141 22.1594C110.631 22.1594 110.214 22.2494 109.89 22.4294C109.566 22.6094 109.404 22.8914 109.404 23.2754C109.404 23.6714 109.596 23.9534 109.98 24.1214C110.37 24.2834 110.964 24.4604 111.762 24.6524C112.368 24.7964 112.92 24.9704 113.418 25.1744C113.922 25.3784 114.324 25.6544 114.624 26.0024C114.924 26.3504 115.074 26.8244 115.074 27.4244C115.074 28.2764 114.753 28.9364 114.111 29.4044C113.475 29.8724 112.599 30.1064 111.483 30.1064C110.673 30.1064 109.92 29.9954 109.224 29.7734C108.534 29.5514 107.961 29.2904 107.505 28.9904ZM127.163 29.8904L125.714 26.5604H119.423L117.983 29.8904H116.165L121.691 17.2904H123.527L129.053 29.8904H127.163ZM122.573 19.3064L120.071 25.0664H125.066L122.573 19.3064ZM134.784 30.1064C133.848 30.1064 133.026 29.9054 132.318 29.5034C131.61 29.1014 131.058 28.5464 130.662 27.8384C130.266 27.1304 130.068 26.3144 130.068 25.3904C130.068 24.4664 130.266 23.6504 130.662 22.9424C131.058 22.2344 131.61 21.6794 132.318 21.2774C133.026 20.8754 133.848 20.6744 134.784 20.6744C135.72 20.6744 136.542 20.8754 137.25 21.2774C137.958 21.6794 138.51 22.2344 138.906 22.9424C139.302 23.6504 139.5 24.4664 139.5 25.3904C139.5 26.3144 139.302 27.1304 138.906 27.8384C138.51 28.5464 137.958 29.1014 137.25 29.5034C136.542 29.9054 135.72 30.1064 134.784 30.1064ZM134.784 28.6124C135.366 28.6124 135.882 28.4744 136.332 28.1984C136.782 27.9224 137.133 27.5444 137.385 27.0644C137.643 26.5784 137.772 26.0204 137.772 25.3904C137.772 24.7604 137.643 24.2054 137.385 23.7254C137.133 23.2394 136.782 22.8584 136.332 22.5824C135.882 22.3064 135.366 22.1684 134.784 22.1684C134.202 22.1684 133.686 22.3064 133.236 22.5824C132.786 22.8584 132.432 23.2394 132.174 23.7254C131.922 24.2054 131.796 24.7604 131.796 25.3904C131.796 26.0204 131.922 26.5784 132.174 27.0644C132.432 27.5444 132.786 27.9224 133.236 28.1984C133.686 28.4744 134.202 28.6124 134.784 28.6124ZM143.395 33.8504H141.703V20.8904H143.341L143.377 22.2494C143.743 21.7694 144.22 21.3884 144.808 21.1064C145.396 20.8184 146.035 20.6744 146.725 20.6744C147.559 20.6744 148.303 20.8784 148.957 21.2864C149.617 21.6944 150.136 22.2554 150.514 22.9694C150.892 23.6774 151.081 24.4844 151.081 25.3904C151.081 26.2964 150.892 27.1064 150.514 27.8204C150.136 28.5284 149.617 29.0864 148.957 29.4944C148.303 29.9024 147.559 30.1064 146.725 30.1064C146.041 30.1064 145.408 29.9684 144.826 29.6924C144.244 29.4104 143.767 29.0324 143.395 28.5584V33.8504ZM146.365 28.6124C146.947 28.6124 147.463 28.4744 147.913 28.1984C148.363 27.9224 148.714 27.5444 148.966 27.0644C149.224 26.5784 149.353 26.0204 149.353 25.3904C149.353 24.7604 149.224 24.2054 148.966 23.7254C148.714 23.2394 148.363 22.8584 147.913 22.5824C147.463 22.3064 146.947 22.1684 146.365 22.1684C145.783 22.1684 145.267 22.3064 144.817 22.5824C144.367 22.8584 144.013 23.2394 143.755 23.7254C143.503 24.2054 143.377 24.7604 143.377 25.3904C143.377 26.0204 143.503 26.5784 143.755 27.0644C144.013 27.5444 144.367 27.9224 144.817 28.1984C145.267 28.4744 145.783 28.6124 146.365 28.6124Z" fill="#232323"/>
</svg>
